<?xml version="1.0" encoding="utf-8"?>
<!-- Generator: Adobe Illustrator 22.1.0, SVG Export Plug-In . SVG Version: 6.00 Build 0)  -->
<svg version="1.1" id="Capa_1" xmlns="http://www.w3.org/2000/svg" xmlns:xlink="http://www.w3.org/1999/xlink" x="0px" y="0px"
	 viewBox="0 0 54.8 54.8" style="enable-background:new 0 0 54.8 54.8;" xml:space="preserve">
<style type="text/css">
	.st0{fill:url(#SVGID_1_);}
	.st1{fill:url(#SVGID_2_);}
</style>
<g>
	<g>
		<linearGradient id="SVGID_1_" gradientUnits="userSpaceOnUse" x1="43.6307" y1="38.8922" x2="10.5187" y2="5.7802">
			<stop  offset="0.2538" style="stop-color:#EF0000"/>
			<stop  offset="0.7615" style="stop-color:#FEE8E8"/>
			<stop  offset="1" style="stop-color:#FFFFFF"/>
		</linearGradient>
		<path class="st0" d="M48.2,31.9c0-2.9-2.3-5.5-6.1-7.3c0.1,1.9,0.2,4.1,0.5,6.4v0.2l-0.1,0.2c-0.1,0.2-2.5,5-15.2,5
			c-0.4,0-0.8-0.3-0.8-0.8c0,0,0,0,0-0.1c0-0.4,0.4-0.7,0.8-0.7l0,0c0.6,0,1.1,0,1.6,0c8.9-0.3,11.5-3.2,12.1-3.9
			c-0.3-2.6-0.4-5-0.5-7C40.1,14.7,41.3,10.5,42,8c0.6-2.2,0.7-2.5-0.8-4c-2.9-2.9-9-3.7-12.3-3.9c-0.5,0-1-0.1-1.4-0.1
			c-0.5,0-0.8,0-0.8,0l0,0c-3.6,0-10.8,0.3-13.9,3.5C9,7.3,14.1,6.3,13.3,24.3c-4.1,1.9-6.7,4.6-6.7,7.6c0,5.7,9.3,10.3,20.8,10.3
			S48.2,37.6,48.2,31.9z M13.9,7.7c0.2-0.4,0.6-0.6,1-0.4c0,0,0.7,0.3,1.8,0.7c2.1,0.7,5.7,1.7,10.1,1.8c0.7,0,1.4,0,2,0
			c2.7-0.1,5.6-0.6,8.5-1.8c0.5-0.2,1.1-0.4,1.6-0.7c0.4-0.2,0.9,0,1,0.4c0.2,0.4,0,0.9-0.4,1c-3.7,1.8-7.4,2.5-10.8,2.7
			c-0.5,0-1,0-1.4,0c-0.2,0-0.4,0-0.6,0c-7-0.1-12.3-2.5-12.6-2.7C13.9,8.5,13.7,8,13.9,7.7z"/>
		<linearGradient id="SVGID_2_" gradientUnits="userSpaceOnUse" x1="36.0055" y1="58.1398" x2="17.9757" y2="40.11">
			<stop  offset="0.2923" style="stop-color:#FF0000"/>
			<stop  offset="0.9795" style="stop-color:#FFFFFF"/>
		</linearGradient>
		<path class="st1" d="M11.9,46.7c0,0.2,0,0.4,0,0.5c-0.6,0.2-1.2,0.7-1.2,1.5c0,1.9,0.8,3.2,2.1,3.8c1,2.3,3.2,2.9,5.7,1.6
			c1.5-0.8,2.8-1.8,4.2-2.8c0.5-0.3,2-1.7,3-2.1c0.1,0,0.3,0,0.4-0.1c0.1,0,0.1,0,0.2,0c0.2,0.1,0.4,0.1,0.7,0.1
			c0.2,0,0.5,0,0.7-0.1c0.1,0,0.1,0,0.2,0c0.1,0.1,0.3,0.1,0.4,0.1c1,0.4,2.5,1.7,3,2.1c1.4,1,2.7,2,4.2,2.8
			c2.5,1.3,4.7,0.7,5.7-1.6c1.3-0.6,2.1-1.8,2.1-3.8c0-0.8-0.5-1.3-1.2-1.5c0-0.2,0-0.3,0-0.5c-0.2-1.8-3.1-1.9-2.9,0
			c0.2,1.5,0,1.9-1.6,1.6c-1.5-0.3-3-0.8-4.4-1.3c-1.9-0.6-4.2-1.5-6.1-0.7c-1.9-0.8-4.3,0.1-6.1,0.7c-1.5,0.5-2.9,1-4.4,1.3
			c-1.6,0.3-1.8-0.1-1.6-1.6C15,44.8,12.1,44.8,11.9,46.7z"/>
	</g>
</g>
</svg>
