<?xml version="1.0" encoding="utf-8"?>
<!-- Generator: Adobe Illustrator 22.1.0, SVG Export Plug-In . SVG Version: 6.00 Build 0)  -->
<svg version="1.1" id="Capa_1" xmlns="http://www.w3.org/2000/svg" xmlns:xlink="http://www.w3.org/1999/xlink" x="0px" y="0px"
	 viewBox="0 0 382.7 382.7" style="enable-background:new 0 0 382.7 382.7;" xml:space="preserve">
<style type="text/css">
	.st0{fill:#D5100C;}
</style>
<g>
	<g>
		<path class="st0" d="M371.7,199.4c0.1-2.5,0.4-5,0.4-7.5c0-2.2-0.2-4.4-0.3-6.7c0.9-4.3,3.1-8.8,5.1-12.8c2.1-4.6,4.2-8.7,4.7-11
			c1.9-7.7-2.6-12.3-7.5-15.3c-3.5-2.2-7.2-3.6-9.5-5.2c-1.3-4.4-2.9-8.7-4.5-12.9c-0.5-4.6,0-9.6,0.4-14.2
			c0.6-5.1,1.4-9.7,1.1-12.1c-2.2-13.5-16.4-12.1-23-13.8c-2.7-3.7-5.4-7.4-8.3-10.9c-4.4-8.3-4.8-21.2-7.2-25
			c-6-12.4-19.4-6-26.1-5.6c-3.7-2.7-7.6-5.2-11.5-7.5C279,32,274,20.7,270.7,17.4c-5.4-5.7-11.8-4.2-16.9-2c-3.7,1.6-6.9,4-9.5,5.2
			c-4.6-1.4-9.3-2.6-14-3.6C222,12.7,214,3.4,209.9,1.7c-7-3.2-12.6-0.4-16.6,3.4c-2.9,3-5.2,6.3-7.3,8.3c-4.7,0.2-9.4,0.5-14.1,1
			c-9.3-1.1-20.1-7.6-24.6-7.7c-7.7-1-12.1,3.4-14.6,8.7c-1.9,3.7-3,7.6-4.3,10c-4.3,1.7-8.5,3.6-12.7,5.6
			c-9.4,1.7-21.5-0.3-26.1,0.6c-7.7,1.4-10,7.6-10.9,13c-0.7,4-0.4,8-0.9,10.9c-3.6,3.1-7.2,6.2-10.5,9.6c-8,4.7-20.5,6.2-24,8.8
			c-11.8,7.2-4.5,19.8-3.4,26.5c-2.4,4-4.6,8-6.7,12.2c-2.8,3.4-7,6.3-10.7,9c-4,3-7.9,5.6-9.4,7.4c-5.4,5.8-3.4,12.1-0.7,17
			c2.1,3.6,4.5,6.5,5.8,9c-1,4.6-1.6,9.3-2.2,13.9c-3.8,8.7-11.7,17.7-13.7,22c-4.4,12.8,8.5,18.4,13.6,23c0.6,4.8,1.3,9.6,2.2,14.4
			c-0.4,9.2-6,20.3-5.7,24.7c-0.4,13.8,14.1,14.6,20.4,17.4c2,4.2,4.2,8.2,6.6,12.2c1.4,4.3,1.5,9.4,1.7,13.9
			c0.3,5,0.4,9.6,1.1,11.9c1.9,7.7,8.3,9.4,13.9,9.8c4.2,0.2,8-0.2,10.8,0.1c3.3,3.3,6.8,6.4,10.3,9.4c5.4,7.7,8.3,19.8,10.9,23.6
			c4.6,6.2,10.9,6.3,16.3,4.9c4-1.2,7.7-3.1,10.4-3.7c4.2,2,8.4,4,12.8,5.7c3.7,2.5,6.9,6.2,9.8,9.9c3.3,3.9,6.3,7.3,8.2,8.7
			c3.1,2.3,6.2,3,9.1,2.7c2.9-0.5,5.5-1.8,7.9-3.5c3.4-2.3,6.2-5.2,8.5-6.7c4.6,0.6,9.3,0.9,14,1.1c9,3,18.6,10.4,23.1,11.8
			c7.5,2.6,12.4-1.9,15.8-6.2c2.5-3.2,4.2-6.7,5.9-8.9c4.7-1,9.3-2.2,13.8-3.6c9.4-0.2,20.9,3.9,25.5,3.7c7.7-0.5,11.2-5.7,13-11
			c1.2-4,1.6-8.1,2.5-10.8c3.9-2.3,7.7-4.7,11.4-7.3c4.2-1.8,9.2-2.6,14-3.1c5.1-0.7,9.5-1.3,11.7-2.1c7.4-2.7,8.9-8.8,8.7-14.6
			c-0.1-4.2-1-8.1-0.9-10.9c2.9-3.4,5.6-7,8.3-10.7c1.6-1.4,3.4-2.6,5.3-3.7c2.2-1.4,4.5-2.7,6.8-3.8c4.6-2.3,8.9-4.1,10.7-5.6
			c10.1-9.2,1.2-20.3-1-26.8c1.7-4.3,3.3-8.7,4.7-13.2c4.6-8.1,15.1-15.4,16.9-19.5C388.3,212.4,375.9,204.8,371.7,199.4z
			 M193.2,351C105.4,351,34,279.6,34,191.9c0-87.8,71.4-159.2,159.2-159.2c87.8,0,159.2,71.4,159.2,159.2
			C352.3,279.6,280.9,351,193.2,351z"/>
		<path class="st0" d="M194.3,41.3c-82.9,0-150.3,67.4-150.3,150.3c0,82.9,67.4,150.3,150.3,150.3c82.9,0,150.3-67.4,150.3-150.3
			C344.6,108.7,277.1,41.3,194.3,41.3z M194.3,332.3c-77.6,0-140.7-63.1-140.7-140.7S116.7,50.9,194.3,50.9
			C271.8,50.9,335,114,335,191.6C334.9,269.2,271.8,332.3,194.3,332.3z"/>
		<polyline class="st0" points="194.7,190.4 113.4,271.7 119.2,277.5 200.5,196.2 278.9,274.6 284.7,268.8 206.3,190.4 287.6,109.1 
			281.8,103.3 200.5,184.6 116.3,100.4 110.5,106.2 		"/>
	</g>
</g>
<g>
	<path class="st0" d="M231.3,237.5c-10,11.7-27.8,23.2-52.1,34.4c-0.9,0.4-1.8-0.4-1.4-1.1c0.6-1.2,1.2-2,1.6-2.5
		c1.8-2.1,5.2-7.4,6.4-9.5c0.3-0.4,0.9-0.6,1.4-0.3c0.7,0.4,1.7,0.7,1.9,0.3c0.3-0.6,12-24.4,13.9-28.2c0.2-0.3,0.1-0.7-0.2-0.9
		c-1.5-1.3-6.4-5-8.4-1.2c-1.5,3-15.1,29.5-24.3,47.4c-0.1,0.2-0.3,0.3-0.5,0.4c-1.7,0.7-3.3,1.4-5,2.1c-1.9,0.7-1.2,2.3,1.4,3.5
		c0.5,0.2,0.7,0.7,0.5,1.1c-2.4,4.8-3.3,7.7-3.7,8.5c-0.1,0.1-0.1,0.3-0.1,0.4c0,0.4,0.2,1.2,1,1.3c0.3,0,0.6-0.1,0.8-0.3
		c2.6-2.7,4.2-5.9,6.4-9.5c0.2-0.3,0.4-0.4,0.8-0.5c17.7-1.9,63-33.2,65.3-36.1c2.4-3-4.7-12.1-5.5-9.5
		C231.4,237.4,231.3,237.5,231.3,237.5z M172.9,280.6c-1,0.9-2.4,0.7-3.2-0.1c-0.9-0.9-0.8-2.2,0.1-3.1c0.9-0.7,2.5-0.9,3.2,0.1
		C173.9,278.4,173.9,279.7,172.9,280.6z"/>
</g>
<g>
	<path class="st0" d="M127.1,200c-0.6-0.1-1,0.3-1.1,0.9c-0.1,0.5,0.3,1,0.9,1.1c10.5,1.2,16.1,4.6,16.1,6.5c0,2.7-10.7,6.5-28,6.5
		s-28-3.8-28-6.5c0-1.9,5.6-5.3,16.1-6.5c0.5-0.1,0.9-0.6,0.9-1.1c-0.1-0.5-0.6-0.9-1.1-0.9c-10.5,1.2-17.9,4.7-17.9,8.5
		c0,4.2,10.3,8.5,30,8.5s30-4.3,30-8.5C145,204.7,137.6,201.2,127.1,200z"/>
	<path class="st0" d="M114.8,211.8l15.3-22.2c5.8-7.7,4.9-20.3-1.8-27c-3.6-3.6-8.4-5.6-13.6-5.6c-5.1,0-9.9,2-13.6,5.6
		c-6.7,6.7-7.5,19.3-1.8,27L114.8,211.8z M115,169c3.9,0,7,3.1,7,7c0,3.9-3.1,7-7,7s-7-3.1-7-7S111.1,169,115,169z"/>
</g>
<g>
	<g>
		<path class="st0" d="M219.6,84.2c0,0,0.1-1.2,2.6-1.8c-2.4-1-4.4,1.3-4.4,1.3l-3.6-0.8c0,0-1.2-2.4,1.8-3.1
			c-2.1-1.1-4.3,2.1-4.3,2.1s-4.2-4.9-5.5-3.4c2.5,0.9,1.6,2.9,1.6,2.9s-30.1-8-37.4,15.7c2-2.7,2.5-2.2,2.5-2.2s-2.6,14.7,1.1,24.2
			c0.8,0.8,1.5,1.4,1.5,1.4s-1.5-5.6-0.2-10.4c0.9-3.4,4.7-6,5.2-7.8c0.7-4-0.9-7.9,4.3-10.8c5.2-2.9,13.3,0.9,16.3,0.7
			c3-0.1,10-4.2,15.1-1.8c5.5,2.6,3.6,10.4,3.8,11.5c0.3,1.4,2.6,2.9,4.1,5.2c1.5,2.4-0.6,14.5-0.6,14.5s0.7,0.3,1.4-0.5
			c0.7-0.8,3.5-21.7,3.2-22.5c-0.3-0.7,0.2-1.8,1.4-0.5C230.5,90.5,219.6,84.2,219.6,84.2z"/>
		<path class="st0" d="M220.5,127.6c-0.6,2.3-4.4,9.6-5.6,10.4c-1.3,0.8-10-3.7-12.9-3.8c-2.8-0.1-10.7,2.5-12.5,1.9
			c-1.7-0.6-13.7-16.3-14.4-14.4c-0.7,1.9,4.1,8.2,4.2,9.5c0.1,1.4,0.1,3.2,1.6,4.9c1.6,1.7,4.6,5.1,6.6,7.3c0-1.8,0.8-1.7,0.8-1.7
			s6.3,7.3,7.9,6.3c-2-1.1-1.2-2.1-1.2-2.1s4.6,7.5,6.1,7.8c1.5,0.3,6.8-8.1,6.8-8.1s1.3,1.8,0,2.9c1.9,0.1,9.4-6.4,12.1-11.4
			c2.7-5,3.9-14.2,3.9-14.2S221.1,125.3,220.5,127.6z"/>
	</g>
</g>
<path class="st0" d="M265,157c-1.5,0-3,0.7-4.1,1.8c-1,1.1-1.5,2.7-1.4,4.2h0v49c0,2.8,2.3,5,5,5h40v-49v-2v-9H265z M261.5,212v-45
	c0.8,0.6,1.9,1,3,1v47C262.8,215,261.5,213.6,261.5,212z M302.5,215h-36v-47h3v25.2c0,0.1,0,0.2,0,0.3c0,0,0,0,0,0
	c0,0.1,0,0.2,0.1,0.3c0,0,0,0,0,0c0,0.1,0.1,0.2,0.1,0.2c0,0,0,0,0,0c0.1,0.1,0.1,0.2,0.2,0.2c0,0,0,0,0,0c0,0,0,0,0,0
	c0.3,0.2,0.6,0.4,1,0.4c0.4,0,0.8-0.2,1.1-0.5c0.1-0.1,0.2-0.2,0.2-0.3l4.2-7l4.2,7c0.1,0.2,0.3,0.3,0.4,0.4
	c0.2,0.2,0.5,0.3,0.9,0.3c0.2,0,0.4,0,0.5-0.1c0,0,0,0,0,0c0.2-0.1,0.3-0.2,0.5-0.3c0,0,0,0,0,0c0,0,0,0,0,0
	c0.1-0.1,0.1-0.1,0.2-0.2c0,0,0,0,0,0c0.1-0.1,0.1-0.2,0.1-0.2c0,0,0,0,0,0c0-0.1,0.1-0.2,0.1-0.2c0,0,0,0,0,0c0-0.1,0-0.2,0-0.3
	V168h19V215z M284.1,166l2-4h-14.2l-2,4l0,0c-1.9,0-8.2-1.4-8.4-3.1c-0.1-1,0.2-2,0.9-2.7c0.7-0.7,1.6-1.2,2.6-1.2h37.5v1h-5
	c-0.6,0-1,0.4-1,1s0.4,1,1,1h5v1h-4c-0.6,0-1,0.4-1,1s0.4,1,1,1h4v1H284.1z"/>
</svg>
