<?xml version="1.0" encoding="utf-8"?>
<!-- Generator: Adobe Illustrator 22.1.0, SVG Export Plug-In . SVG Version: 6.00 Build 0)  -->
<svg version="1.1" id="Camada_1" xmlns="http://www.w3.org/2000/svg" xmlns:xlink="http://www.w3.org/1999/xlink" x="0px" y="0px"
	 viewBox="0 0 60 60" style="enable-background:new 0 0 60 60;" xml:space="preserve">
<style type="text/css">
	.st0{fill:url(#SVGID_1_);}
	.st1{fill:url(#SVGID_2_);}
	.st2{fill:url(#SVGID_3_);}
</style>
<g>
	<linearGradient id="SVGID_1_" gradientUnits="userSpaceOnUse" x1="56.3" y1="8.9" x2="3.7" y2="8.9">
		<stop  offset="0" style="stop-color:#FF0000"/>
		<stop  offset="1" style="stop-color:#000000"/>
	</linearGradient>
	<path class="st0" d="M8.9,14.2H51c2.9,0,5.3-2.4,5.3-5.3S53.9,3.6,51,3.6H8.9C6,3.7,3.7,6,3.7,8.9S6,14.2,8.9,14.2L8.9,14.2z"/>
	<linearGradient id="SVGID_2_" gradientUnits="userSpaceOnUse" x1="56.3" y1="30" x2="3.6" y2="30">
		<stop  offset="0" style="stop-color:#FF0000"/>
		<stop  offset="1" style="stop-color:#000000"/>
	</linearGradient>
	<path class="st1" d="M51.1,24.7H8.9c-2.9,0-5.3,2.4-5.3,5.3s2.4,5.3,5.3,5.3H51c2.9,0,5.3-2.4,5.3-5.3S54,24.7,51.1,24.7L51.1,24.7
		z"/>
	<linearGradient id="SVGID_3_" gradientUnits="userSpaceOnUse" x1="56.3" y1="51.1" x2="3.6" y2="51.1">
		<stop  offset="0" style="stop-color:#FF0000"/>
		<stop  offset="1" style="stop-color:#000000"/>
	</linearGradient>
	<path class="st2" d="M51.1,45.8H8.9c-2.9,0-5.3,2.4-5.3,5.3c0,2.9,2.4,5.3,5.3,5.3H51c2.9,0,5.3-2.4,5.3-5.3S54,45.8,51.1,45.8
		L51.1,45.8z"/>
</g>
</svg>
