<?xml version="1.0" encoding="utf-8"?>
<!-- Generator: Adobe Illustrator 22.1.0, SVG Export Plug-In . SVG Version: 6.00 Build 0)  -->
<svg version="1.1" id="Capa_1" xmlns="http://www.w3.org/2000/svg" xmlns:xlink="http://www.w3.org/1999/xlink" x="0px" y="0px"
	 viewBox="0 0 30.5 30.5" style="enable-background:new 0 0 30.5 30.5;" xml:space="preserve">
<style type="text/css">
	.st0{fill:#D5100C;}
</style>
<g>
	<g>
		<path class="st0" d="M22.2,2.4c0,0,0-0.5,0.9-0.7c-0.8-0.4-1.6,0.5-1.6,0.5l-1.3-0.3c0,0-0.4-1,0.7-1.2c-0.8-0.5-1.5,0.8-1.5,0.8
			s-1.5-2-1.9-1.4C18.3,0.5,18,1.3,18,1.3S7.4-1.9,4.8,7.6c0.7-1.1,0.9-0.9,0.9-0.9S4.7,12.7,6,16.5c0.3,0.3,0.5,0.6,0.5,0.6
			S6,14.8,6.5,12.9c0.3-1.4,1.7-2.4,1.8-3.1C8.6,8.1,8,6.6,9.9,5.4c1.8-1.2,4.7,0.3,5.8,0.3C16.7,5.6,19.1,4,21,5
			c2,1.1,1.3,4.2,1.3,4.7c0.1,0.6,0.9,1.2,1.4,2.1c0.5,0.9-0.2,5.8-0.2,5.8s0.3,0.1,0.5-0.2s1.2-8.8,1.1-9.1
			c-0.1-0.3,0.1-0.7,0.5-0.2C26,5,22.2,2.4,22.2,2.4z"/>
		<path class="st0" d="M22.5,19.9c-0.2,0.9-1.5,3.9-2,4.2c-0.5,0.3-3.5-1.5-4.5-1.5c-1,0-3.8,1-4.4,0.8s-4.8-6.6-5.1-5.8
			c-0.3,0.8,1.4,3.3,1.5,3.9s0,1.3,0.6,2s1.6,2.1,2.3,2.9c0-0.7,0.3-0.7,0.3-0.7s2.2,3,2.8,2.5c-0.7-0.4-0.4-0.9-0.4-0.9
			s1.6,3,2.2,3.2c0.5,0.1,2.4-3.3,2.4-3.3s0.5,0.7,0,1.2c0.7,0.1,3.3-2.6,4.3-4.6c0.9-2,1.4-5.7,1.4-5.7S22.7,19,22.5,19.9z"/>
	</g>
</g>
</svg>
