<?xml version="1.0" encoding="utf-8"?>
<!-- Generator: Adobe Illustrator 22.1.0, SVG Export Plug-In . SVG Version: 6.00 Build 0)  -->
<svg version="1.1" id="Capa_1" xmlns="http://www.w3.org/2000/svg" xmlns:xlink="http://www.w3.org/1999/xlink" x="0px" y="0px"
	 viewBox="0 0 378.3 378.3" style="enable-background:new 0 0 378.3 378.3;" xml:space="preserve">
<style type="text/css">
	.st0{fill:#D5100C;}
</style>
<g>
	<path class="st0" d="M342.8,60.4C293,129.2,202.3,197,77.6,263c6-13.1,10.7-23.2,13.9-27.6c11-15.2,33.4-58.3,33.4-58.3
		s11.8,8.2,13.4,4.4c1.6-3.8,68.3-162.7,68.3-162.7s-31.5-35.1-42.7-9.4c-7.4,17-73.7,168.8-117.9,269.8
		c-8.5,4.3-17.1,8.6-25.9,12.9c-9.9,4.3-4.8,15.2,10.7,22c-14.5,33.3-24.2,55.5-24.2,55.5s-0.3,11.1,7.7,8.2
		c13.6-16.2,26.2-37.9,37.2-59.6c83.7-7.3,306.3-188.1,317.7-204.8C381,96.3,345.3,43.3,342.8,60.4z M64.5,299
		c-2.6,2.5-6.7,2.3-9.2-0.3c-2.5-2.6-2.3-6.7,0.3-9.2c2.6-2.5,6.7-2.3,9.2,0.3C67.3,292.5,67.1,296.6,64.5,299z"/>
</g>
</svg>
